<svg xmlns="http://www.w3.org/2000/svg" width="512" height="512" viewBox="0 0 512 512" style="overflow: visible;" data-svgdocument="" id="_I0ov3IfCN94KM39ZrkGG9" class="fl-svgdocument" x="0" y="0" overflow="hidden"><g id="_1okLasMQs-nIAbPV2iyDb" transform="matrix(0.9471648144191779, 0, 0, 0.9471648144191779, 20.036048127773938, 12.18258496935195)" data-uid="o_f9gn607ff_6"><path id="_Fl2Scs4_wOHmg5OewV_GS" d="M661.8 226L637 215.3c-12.6-5.4-27.4 0.4-32.8 13l-36.9 85.7L269.8 185.9c-4.2-34.1-33.4-60.6-68.6-60.6   c-38.1 0-69.2 31-69.2 69.1c0 38.1 31 69.2 69.2 69.2c12.3 0 23.9-3.2 33.9-8.9l322.4 138.9l27.1 11.7c10.8 4.7 23.3 1 30-8.2   c1.1-1.5 2-3.1 2.7-4.8l11.1-25.7l0.2-0.4l46.3-107.5C680.3 246.2 674.4 231.5 661.8 226z M201.2 231.9c-2.4 0-4.7-0.2-7-0.7   c-17.3-3.3-30.4-18.5-30.4-36.8c0-20.6 16.8-37.4 37.4-37.4c11.2 0 21.2 4.9 28 12.7c5.8 6.6 9.4 15.3 9.4 24.8   C238.6 215.1 221.8 231.9 201.2 231.9z" stroke="none" fill="#109e92" transform="matrix(0.2085195928812027, 0, 0, 0.2085195928812027, 144.90396118164062, 62.76109313964844)" stroke-width="1" data-uid="o_f9gn607ff_7"></path><path id="_ylJJOq6xC4o6BEfUmBUra" d="M545.3 279.8L387.9 212c-6.1-2.6-8.9-9.7-6.3-15.8l21-48.7c2.6-6.1 9.7-8.9 15.8-6.3l157.4 67.8   c6.1 2.6 8.9 9.7 6.3 15.8l-21 48.7C558.5 279.6 551.4 282.4 545.3 279.8z" stroke="none" fill="#33364d" transform="matrix(0.2085195928812027, 0, 0, 0.2085195928812027, 144.7735137939453, 62.775787353515625)" stroke-width="1" data-uid="o_f9gn607ff_8"></path><path id="_-X9hASYMVyRCYiqeY_XF9" d="M717.5 549.4l67.1-157.7c2.6-6.1 9.7-8.9 15.7-6.3l48.7 20.7c6.1 2.6 8.9 9.7 6.3 15.7l-67.1 157.7   c-2.6 6.1-9.7 8.9-15.7 6.3l-48.7-20.7C717.8 562.5 714.9 555.4 717.5 549.4z" stroke="none" fill="#109e92" transform="matrix(0.2085195928812027, 0, 0, 0.2085195928812027, 144.89785766601562, 62.73540496826172)" stroke-width="1" data-uid="o_f9gn607ff_9"></path><path id="_C6xIPFOMuRv8iGuhwgHGI" d="M448.8 722.8l158 66.4c6.1 2.6 9 9.6 6.4 15.7l-20.5 48.8c-2.6 6.1-9.6 9-15.7 6.4l-158-66.4   c-6.1-2.6-9-9.6-6.4-15.7l20.5-48.8C435.6 723.1 442.7 720.2 448.8 722.8z" stroke="none" fill="#33364d" transform="matrix(0.2085195928812027, 0, 0, 0.2085195928812027, 144.77081298828125, 62.754337310791016)" stroke-width="1" data-uid="o_f9gn607ff_10"></path><path id="_MlIuLZQfTU_n82zo4SSOF" d="M274.1 454.8l-65.7 158.3c-2.5 6.1-9.6 9-15.7 6.5l-48.9-20.3c-6.1-2.5-9-9.6-6.5-15.7L203 425.4   c2.5-6.1 9.6-9 15.7-6.5l48.9 20.3C273.8 441.7 276.7 448.7 274.1 454.8z" stroke="none" fill="#109e92" transform="matrix(0.2085195928812027, 0, 0, 0.2085195928812027, 144.82003784179688, 62.824527740478516)" stroke-width="1" data-uid="o_f9gn607ff_11"></path><path id="_lvmqmwhDVeFZ_HFAdwjNl" d="M798.8 133c-38.1 0-69.2 31-69.2 69.1c0 13.9 4.1 26.8 11.2 37.6L603.7 562l-11.5 27.1    c-1.5 3.6-2.2 7.4-2 11.1c0 0.2 0 0.5 0.1 0.7c0 0.3 0 0.5 0.1 0.8c0 0 0 0.1 0 0.1c0.1 0.4 0.1 0.9 0.2 1.3    c0.1 0.4 0.1 0.8 0.2 1.2c0 0.2 0.1 0.4 0.2 0.6c0.1 0.4 0.2 0.7 0.3 1c0.1 0.4 0.2 0.8 0.4 1.2c0 0.2 0.1 0.3 0.2 0.5    c0.1 0.4 0.3 0.8 0.5 1.1c0.2 0.4 0.3 0.7 0.5 1.1c0.1 0.2 0.2 0.5 0.4 0.7c0 0.1 0.1 0.2 0.1 0.3c0.2 0.3 0.3 0.6 0.5 0.8    c0.1 0.3 0.3 0.5 0.5 0.7c0.2 0.3 0.4 0.7 0.7 1c0.2 0.2 0.3 0.5 0.5 0.7c0.3 0.3 0.5 0.6 0.8 1c0.2 0.2 0.3 0.4 0.5 0.6    c0.1 0.1 0.1 0.1 0.2 0.2c0.1 0.1 0.1 0.1 0.2 0.2c0.1 0.1 0.1 0.1 0.1 0.1c0.7 0.7 1.4 1.4 2.2 2c0 0 0 0 0 0    c0.4 0.3 0.8 0.6 1.2 0.9c1.5 1.1 3.1 2 4.8 2.7l25 10.7l1.2 0.5l107.7 45.8c12.6 5.4 27.4-0.6 32.7-13.2l10.6-24.9    c5.4-12.6-0.6-27.3-13.2-32.7l-85.9-36.5l128.2-301.3c32.1-6 56.4-34.2 56.4-68C868 164 837 133 798.8 133z M826.1 227.7    c-6.8 7.3-16.5 11.8-27.3 11.8c-20.6 0-37.4-16.8-37.4-37.4c0-0.7 0-1.5 0.1-2.2v0c1.1-19.6 17.4-35.2 37.4-35.2    c20.6 0 37.4 16.8 37.4 37.4C836.3 212 832.4 221 826.1 227.7z" stroke="none" fill="#33364d" transform="matrix(0.2085195928812027, 0, 0, 0.2085195928812027, 144.8711395263672, 62.71943283081055)" stroke-width="1" data-uid="o_f9gn607ff_12"></path><path id="_Zaq_LSCsA51_rTNqmlLFO" d="M392.1 385.2c-1.9-1.6-4-2.9-6.3-3.8l-26-10.8l-0.3-0.1l-108.1-44.8c-12.7-5.3-27.4 0.8-32.6 13.5    l-10.4 25c-5.3 12.7 0.8 27.4 13.5 32.6l86.2 35.8L181.7 737.2c-28.7 8.4-49.7 35-49.7 66.4c0 38.1 31 69.2 69.2 69.2    c38.1 0 69.2-31 69.2-69.2c0-16.2-5.6-31.1-15-42.9l132.5-319.5c0.4-0.7 0.7-1.4 1-2.1l10.4-25C403.5 403.7 400.3 392 392.1 385.2    z M201.2 841c-20.6 0-37.4-16.8-37.4-37.4c0-7.6 2.3-14.6 6.1-20.5c6.7-10.2 18.2-16.9 31.3-16.9c19.3 0 35.2 14.7 37.2 33.5v0    c0.1 1.3 0.2 2.6 0.2 3.9C238.6 824.2 221.8 841 201.2 841z" stroke="none" fill="#33364d" transform="matrix(0.2085195928812027, 0, 0, 0.2085195928812027, 144.79991149902344, 62.76464080810547)" stroke-width="1" data-uid="o_f9gn607ff_13"></path><path id="_z0Xkf1PDXmE11S_mmEETh" d="M795 736.3c-12.5 0-24.3 3.4-34.5 9.2L435.5 609l-27.1-11.4c-9.7-4-20.6-1.5-27.5 5.6    c-2.1 2.2-3.9 4.7-5.1 7.7L365 636.6L319.5 745c-5.3 12.7 0.7 27.4 13.3 32.7l24.9 10.5c12.7 5.3 27.4-0.7 32.7-13.3l36.2-86.1    l299.9 126c4.5 33.8 33.5 59.9 68.5 59.9c38.1 0 69.2-31 69.2-69.2C864.2 767.4 833.2 736.3 795 736.3z M795 842.9    c-11.3 0-21.4-5-28.2-12.9h0c-5.7-6.6-9.2-15.2-9.2-24.5c0-20.6 16.8-37.4 37.4-37.4c1.9 0 3.7 0.1 5.6 0.4    c18 2.7 31.9 18.3 31.9 37C832.5 826.1 815.7 842.9 795 842.9z" stroke="none" fill="#109e92" transform="matrix(0.2085195928812027, 0, 0, 0.2085195928812027, 144.7860870361328, 62.78530502319336)" stroke-width="1" data-uid="o_f9gn607ff_14"></path></g><path id="_m77QNyT4vtXHEi9tJOdSZ" fill="#33364d" transform="matrix(0.635745193646975, 0, 0, 0.905553070533884, 6.246227216156113, 327.58397298923217)" text="HiTech-Solution" text-anchor="start" font-size="102" letter-spacing="0" side="left" offset="0" dx="0" dy="0" space="preserve" href="" font-family="Fredoka One" font-scale="contain" x="0" y="0" data-fl-textpath="" data-uid="o_f9gn607ff_15" d="M 50.29-72.01Q 51.1-73.54  53.04-74.15Q 54.98-74.77  57.94-74.77Q 60.89-74.77  62.63-74.26Q 64.36-73.75  65.28-73.03Q 66.2-72.32  66.71-70.99L 66.71-70.99Q 67.22-69.26  67.22-65.69L 67.22-65.69L 67.22-9.08Q 67.22-6.73  67.06-5.56Q 66.91-4.39  66.1-2.86L 66.1-2.86Q 64.67-0.1  58.14-0.1L 58.14-0.1Q 51-0.1  49.78-3.88L 49.78-3.88Q 49.16-5.61  49.16-9.18L 49.16-9.18L 49.16-29.89L 22.13-29.89L 22.13-9.08Q 22.13-6.73  21.98-5.56Q 21.83-4.39  21.01-2.86L 21.01-2.86Q 19.58-0.1  13.06-0.1L 13.06-0.1Q 5.92-0.1  4.69-3.88L 4.69-3.88Q 4.08-5.61  4.08-9.18L 4.08-9.18L 4.08-65.79Q 4.08-68.14  4.23-69.31Q 4.39-70.48  5.2-72.01L 5.2-72.01Q 6.63-74.77  13.16-74.77L 13.16-74.77Q 20.3-74.77  21.62-70.99L 21.62-70.99Q 22.13-69.26  22.13-65.69L 22.13-65.69L 22.13-44.88L 49.16-44.88L 49.16-65.79Q 49.16-68.14  49.32-69.31Q 49.47-70.48  50.29-72.01ZM 75.378-8.98L 75.378-44.78Q 75.378-47.12  75.528-48.3Q 75.688-49.47  76.398-51L 76.398-51Q 77.828-53.65  84.358-53.65L 84.358-53.65Q 89.248-53.65  91.288-51.92L 91.288-51.92Q 93.028-50.49  93.128-47.53L 93.128-47.53Q 93.228-46.51  93.228-44.57L 93.228-44.57L 93.228-8.87Q 93.228-6.53  93.078-5.36Q 92.918-4.18  92.108-2.65L 92.108-2.65Q 90.778 0  84.248 0L 84.248 0Q 77.828 0  76.398-2.75L 76.398-2.75Q 75.688-4.28  75.528-5.41Q 75.378-6.53  75.378-8.98L 75.378-8.98ZM 92.158-63.7Q 91.388-62.22  89.458-61.61Q 87.518-61  84.308-61Q 81.088-61  79.148-61.61Q 77.218-62.22  76.448-63.75Q 75.688-65.28  75.528-66.45Q 75.378-67.63  75.378-69.97Q 75.378-72.32  75.528-73.49Q 75.688-74.66  76.398-76.09L 76.398-76.09Q 77.828-78.85  84.358-78.85L 84.358-78.85Q 90.778-78.85  92.108-76.09L 92.108-76.09Q 92.918-74.56  93.078-73.39Q 93.228-72.22  93.228-69.87Q 93.228-67.52  93.078-66.35Q 92.918-65.18  92.158-63.7ZM 106.288-74.87L 106.288-74.87L 162.998-74.87Q 166.258-74.87  167.788-74.1Q 169.318-73.34  169.828-71.71Q 170.338-70.07  170.338-67.42Q 170.338-64.77  169.828-63.19Q 169.318-61.61  168.098-61L 168.098-61Q 166.258-60.08  162.898-60.08L 162.898-60.08L 143.408-60.08L 143.408-8.77Q 143.408-6.43  143.258-5.3Q 143.108-4.18  142.338-2.7Q 141.578-1.22  139.638-0.61Q 137.698 0  134.538 0Q 131.378 0  129.488-0.61Q 127.598-1.22  126.838-2.7Q 126.068-4.18  125.918-5.36Q 125.768-6.53  125.768-8.87L 125.768-8.87L 125.768-60.08L 106.178-60.08Q 102.918-60.08  101.388-60.84Q 99.858-61.61  99.348-63.24Q 98.838-64.87  98.838-67.52Q 98.838-70.18  99.348-71.76Q 99.858-73.34  101.078-73.95L 101.078-73.95Q 102.918-74.87  106.288-74.87ZM 215.53-33.3Q 215.53-27.03  212.42-24.02Q 209.3-21.01  205.53-21.01L 205.53-21.01L 181.36-21.01Q 181.36-18.16  184.72-16.22Q 188.09-14.28  191.45-14.28L 191.45-14.28Q 197.37-14.28  200.74-15.5L 200.74-15.5L 201.86-15.91Q 204.31-17.03  205.94-17.03L 205.94-17.03Q 209.2-17.03  211.55-12.44L 211.55-12.44Q 212.87-9.69  212.87-7.75L 212.87-7.75Q 212.87 1.33  191.15 1.33L 191.15 1.33Q 183.6 1.33  177.74-1.28Q 171.87-3.88  168.61-8.16L 168.61-8.16Q 162.18-16.42  162.18-26.62L 162.18-26.62Q 162.18-39.47  170.49-47.18Q 178.81-54.88  191.25-54.88L 191.25-54.88Q 205.43-54.88  212.06-44.88L 212.06-44.88Q 215.53-39.58  215.53-33.3ZM 181.15-30.29L 194-30.29Q 197.88-30.29  197.88-33.56L 197.88-33.56Q 197.88-35.9  196.1-37.33Q 194.31-38.76  191-38.76Q 187.68-38.76  184.42-36.06Q 181.15-33.35  181.15-30.29L 181.15-30.29ZM 238.986-26.88Q 238.986-22.54  241.846-20.15Q 244.696-17.75  247.916-17.75Q 251.126-17.75  253.926-19.64Q 256.736-21.52  258.466-21.52L 258.466-21.52Q 261.526-21.52  265.916-16.12L 265.916-16.12Q 268.256-13.16  268.256-10.81L 268.256-10.81Q 268.256-6.94  262.646-3.57L 262.646-3.57Q 256.836 0.51  248.366 0.51L 248.366 0.51Q 238.886 0.51  230.116-6.32L 230.116-6.32Q 225.926-9.59  223.276-15.05Q 220.626-20.5  220.626-27.08Q 220.626-33.66  223.276-39.02Q 225.926-44.37  230.116-47.63L 230.116-47.63Q 238.576-54.37  248.166-54.37L 248.166-54.37Q 252.046-54.37  255.716-53.3Q 259.386-52.22  261.116-51.2L 261.116-51.2L 262.756-50.18Q 264.586-48.96  265.606-48.25L 265.606-48.25Q 268.256-46.21  268.256-43.61Q 268.256-41  266.116-37.74L 266.116-37.74Q 262.446-32.13  259.076-32.13L 259.076-32.13Q 257.146-32.13  253.576-34.37L 253.576-34.37Q 251.736-36.11  248.316-36.11Q 244.906-36.11  241.946-33.66Q 238.986-31.21  238.986-26.88ZM 304.058-53.55L 304.058-53.55Q 314.258-53.55  321.048-45.8Q 327.828-38.05  327.828-26.83L 327.828-26.83L 327.828-8.87Q 327.828-6.53  327.678-5.36Q 327.518-4.18  326.708-2.65L 326.708-2.65Q 325.378 0  318.848 0L 318.848 0Q 312.628 0  311.098-2.65L 311.098-2.65Q 310.288-4.18  310.128-5.41Q 309.978-6.63  309.978-9.08L 309.978-9.08L 309.978-26.93Q 309.978-31.11  307.628-33.46Q 305.288-35.8  301.668-35.8Q 298.048-35.8  295.288-33.61Q 292.538-31.42  292.128-28.66L 292.128-28.66L 292.128-8.87Q 292.128-6.53  291.978-5.36Q 291.818-4.18  291.008-2.65L 291.008-2.65Q 289.678 0  283.148 0L 283.148 0Q 276.728 0  275.298-2.75L 275.298-2.75Q 274.588-4.28  274.428-5.41Q 274.278-6.53  274.278-8.98L 274.278-8.98L 274.278-69.97Q 274.278-72.32  274.428-73.49Q 274.588-74.66  275.298-76.09L 275.298-76.09Q 276.728-78.85  283.258-78.85L 283.258-78.85Q 289.678-78.85  291.008-76.09L 291.008-76.09Q 291.818-74.56  291.978-73.39Q 292.128-72.22  292.128-69.87L 292.128-69.87L 292.128-47.33Q 297.228-53.55  304.058-53.55ZM 366.078-14.18L 366.078-14.18L 341.798-14.18Q 336.088-14.18  334.968-17.65L 334.968-17.65Q 334.458-19.48  334.458-22.34Q 334.458-25.19  335.068-26.93Q 335.678-28.66  337.008-29.38L 337.008-29.38Q 338.848-30.29  341.908-30.29L 341.908-30.29L 366.178-30.29Q 371.888-30.29  372.908-26.93L 372.908-26.93Q 373.528-25.09  373.528-22.24Q 373.528-19.38  372.958-17.6Q 372.398-15.81  371.178-15.1L 371.178-15.1Q 369.338-14.18  366.078-14.18ZM 382.194-9.38L 381.274-10.51Q 378.624-13.77  378.624-16.37Q 378.624-18.97  383.014-23.26L 383.014-23.26Q 385.564-25.7  388.414-25.7Q 391.274-25.7  396.374-20.6L 396.374-20.6Q 397.804-18.87  400.454-17.29Q 403.104-15.71  405.344-15.71L 405.344-15.71Q 414.834-15.71  414.834-23.46L 414.834-23.46Q 414.834-25.81  412.234-27.39Q 409.634-28.97  405.754-29.68Q 401.884-30.4  397.394-31.98Q 392.904-33.56  389.024-35.7Q 385.154-37.84  382.554-42.48Q 379.954-47.12  379.954-53.65L 379.954-53.65Q 379.954-62.63  386.634-69.31Q 393.314-75.99  404.834-75.99L 404.834-75.99Q 410.954-75.99  416.004-74.41Q 421.054-72.83  422.994-71.2L 422.994-71.2L 425.544-69.26Q 428.704-66.3  428.704-64.26Q 428.704-62.22  426.254-58.65L 426.254-58.65Q 422.794-53.55  419.114-53.55L 419.114-53.55Q 416.974-53.55  413.814-55.59L 413.814-55.59Q 413.504-55.79  412.644-56.61Q 411.774-57.43  411.064-57.94L 411.064-57.94Q 408.914-59.26  405.604-59.26Q 402.284-59.26  400.094-57.68Q 397.904-56.1  397.904-53.3Q 397.904-50.49  400.504-48.76Q 403.104-47.02  406.984-46.41Q 410.854-45.8  415.444-44.52Q 420.034-43.25  423.914-41.41Q 427.784-39.58  430.394-35.04Q 432.994-30.5  432.994-23.87Q 432.994-17.24  430.334-12.19Q 427.684-7.14  423.404-4.39L 423.404-4.39Q 415.144 1.02  405.754 1.02L 405.754 1.02Q 400.964 1.02  396.674-0.15Q 392.394-1.33  389.744-3.06L 389.744-3.06Q 384.334-6.32  382.194-9.38L 382.194-9.38ZM 438.09-26.83Q 438.09-39.07  446.66-47.02Q 455.23-54.98  466.24-54.98Q 477.26-54.98  485.72-47.07Q 494.19-39.17  494.19-26.93L 494.19-26.93Q 494.19-18.46  489.8-11.88Q 485.42-5.3  479.15-2.19Q 472.87 0.92  466.14 0.92Q 459.41 0.92  453.08-2.4Q 446.76-5.71  442.43-12.19Q 438.09-18.67  438.09-26.83L 438.09-26.83ZM 459.41-19.53Q 462.67-17.03  466.04-17.03Q 469.4-17.03  472.77-19.58Q 476.14-22.13  476.14-27.13Q 476.14-32.13  472.97-34.58Q 469.81-37.03  466.14-37.03Q 462.47-37.03  459.31-34.48Q 456.14-31.93  456.14-26.98Q 456.14-22.03  459.41-19.53ZM 500.82-21.52L 500.82-70.07Q 500.82-72.42  500.97-73.59Q 501.13-74.77  501.84-76.3L 501.84-76.3Q 503.27-79.05  509.8-79.05L 509.8-79.05Q 516.02-79.05  517.55-76.3L 517.55-76.3Q 518.36-74.77  518.52-73.54Q 518.67-72.32  518.67-69.97L 518.67-69.97L 518.67-22.75Q 518.67-19.07  519.28-18.11Q 519.89-17.14  521.99-17.14Q 524.08-17.14  524.79-16.98Q 525.5-16.83  526.52-16.12L 526.52-16.12Q 528.56-14.79  528.56-8.87L 528.56-8.87Q 528.56-2.45  526.52-1.02L 526.52-1.02Q 523.87 0.82  513.88-0.41L 513.88-0.41Q 506.02-1.43  503.68-5.61L 503.68-5.61Q 500.82-10.61  500.82-21.52L 500.82-21.52ZM 557.024-0.2L 557.024-0.2Q 546.724-0.2  539.934-8.01Q 533.154-15.81  533.154-27.03L 533.154-27.03L 533.154-44.88Q 533.154-47.33  533.304-48.45Q 533.464-49.57  534.174-51.1L 534.174-51.1Q 535.604-53.86  542.134-53.86L 542.134-53.86Q 549.274-53.86  550.494-49.98L 550.494-49.98Q 551.104-48.35  551.104-44.78L 551.104-44.78L 551.104-26.93Q 551.104-22.75  553.504-20.4Q 555.904-18.05  559.934-18.05Q 563.954-18.05  566.454-20.5Q 568.954-22.95  568.954-26.93L 568.954-26.93L 568.954-44.98Q 568.954-47.33  569.114-48.5Q 569.264-49.67  570.074-51.2L 570.074-51.2Q 571.404-53.86  577.934-53.86L 577.934-53.86Q 584.354-53.86  585.784-51.1L 585.784-51.1Q 586.504-49.57  586.654-48.4Q 586.804-47.23  586.804-44.88L 586.804-44.88L 586.804-8.77Q 586.804-6.53  586.654-5.36Q 586.504-4.18  585.684-2.75L 585.684-2.75Q 584.154-0.1  577.834-0.1L 577.834-0.1Q 571.604-0.1  570.184-2.55L 570.184-2.55Q 569.164-4.28  569.164-6.73L 569.164-6.73Q 568.754-6.02  567.324-4.69Q 565.894-3.37  564.574-2.45L 564.574-2.45Q 561.104-0.2  557.024-0.2ZM 626.176-35.7L 626.176-35.7L 619.546-36.11L 619.546-22.03Q 619.546-19.28  620.416-18.05Q 621.286-16.83  623.676-16.83Q 626.076-16.83  627.356-16.68Q 628.626-16.52  630.056-15.71L 630.056-15.71Q 632.396-14.38  632.396-8.87L 632.396-8.87Q 632.396-2.45  629.546-1.02L 629.546-1.02Q 628.016-0.31  626.846-0.15Q 625.666 0  623.426 0L 623.426 0Q 612.816 0  607.306-4.79Q 601.796-9.59  601.796-21.01L 601.796-21.01L 601.796-36.11Q 599.866-35.8  597.616-35.8Q 595.376-35.8  593.896-37.54Q 592.416-39.27  592.416-43.45Q 592.416-47.63  592.926-49.52Q 593.436-51.41  594.356-52.22L 594.356-52.22Q 595.986-53.55  598.436-53.55L 598.436-53.55L 601.796-53.14L 601.796-63.65Q 601.796-65.99  601.956-67.12Q 602.106-68.24  602.926-69.56L 602.926-69.56Q 604.246-72.11  610.776-72.11L 610.776-72.11Q 617.716-72.11  619.036-68.34L 619.036-68.34Q 619.546-66.71  619.546-63.14L 619.546-63.14L 619.546-53.14Q 624.036-53.55  626.336-53.55Q 628.626-53.55  629.796-53.4Q 630.976-53.24  632.506-52.43L 632.506-52.43Q 635.156-51.1  635.156-44.57L 635.156-44.57Q 635.156-38.15  632.396-36.72L 632.396-36.72Q 630.866-36.01  629.696-35.85Q 628.526-35.7  626.176-35.7ZM 640.764-8.98L 640.764-44.78Q 640.764-47.12  640.914-48.3Q 641.074-49.47  641.784-51L 641.784-51Q 643.214-53.65  649.744-53.65L 649.744-53.65Q 654.634-53.65  656.674-51.92L 656.674-51.92Q 658.414-50.49  658.514-47.53L 658.514-47.53Q 658.614-46.51  658.614-44.57L 658.614-44.57L 658.614-8.87Q 658.614-6.53  658.464-5.36Q 658.304-4.18  657.494-2.65L 657.494-2.65Q 656.164 0  649.634 0L 649.634 0Q 643.214 0  641.784-2.75L 641.784-2.75Q 641.074-4.28  640.914-5.41Q 640.764-6.53  640.764-8.98L 640.764-8.98ZM 657.544-63.7Q 656.774-62.22  654.844-61.61Q 652.904-61  649.694-61Q 646.474-61  644.534-61.61Q 642.604-62.22  641.834-63.75Q 641.074-65.28  640.914-66.45Q 640.764-67.63  640.764-69.97Q 640.764-72.32  640.914-73.49Q 641.074-74.66  641.784-76.09L 641.784-76.09Q 643.214-78.85  649.744-78.85L 649.744-78.85Q 656.164-78.85  657.494-76.09L 657.494-76.09Q 658.304-74.56  658.464-73.39Q 658.614-72.22  658.614-69.87Q 658.614-67.52  658.464-66.35Q 658.304-65.18  657.544-63.7ZM 665.244-26.83Q 665.244-39.07  673.814-47.02Q 682.384-54.98  693.394-54.98Q 704.414-54.98  712.874-47.07Q 721.344-39.17  721.344-26.93L 721.344-26.93Q 721.344-18.46  716.954-11.88Q 712.574-5.3  706.304-2.19Q 700.024 0.92  693.294 0.92Q 686.564 0.92  680.234-2.4Q 673.914-5.71  669.584-12.19Q 665.244-18.67  665.244-26.83L 665.244-26.83ZM 686.564-19.53Q 689.824-17.03  693.194-17.03Q 696.554-17.03  699.924-19.58Q 703.294-22.13  703.294-27.13Q 703.294-32.13  700.124-34.58Q 696.964-37.03  693.294-37.03Q 689.624-37.03  686.464-34.48Q 683.294-31.93  683.294-26.98Q 683.294-22.03  686.564-19.53ZM 757.864-53.75L 757.864-53.75Q 768.064-53.75  774.844-45.95Q 781.624-38.15  781.624-26.93L 781.624-26.93L 781.624-8.98Q 781.624-6.63  781.474-5.46Q 781.324-4.28  780.604-2.86L 780.604-2.86Q 779.174-0.1  772.654-0.1L 772.654-0.1Q 765.404-0.1  764.284-3.88L 764.284-3.88Q 763.674-5.61  763.674-9.08L 763.674-9.08L 763.674-27.03Q 763.674-31.21  761.274-33.56Q 758.884-35.9  754.854-35.9Q 750.824-35.9  748.324-33.46Q 745.824-31.01  745.824-27.03L 745.824-27.03L 745.824-8.98Q 745.824-6.63  745.674-5.46Q 745.514-4.28  744.704-2.86L 744.704-2.86Q 743.374-0.1  736.844-0.1L 736.844-0.1Q 730.424-0.1  728.994-2.86L 728.994-2.86Q 728.284-4.39  728.124-5.56Q 727.974-6.73  727.974-9.08L 727.974-9.08L 727.974-45.19Q 727.974-47.43  728.124-48.6Q 728.284-49.78  729.094-51.2L 729.094-51.2Q 730.524-53.75  736.954-53.75L 736.954-53.75Q 743.174-53.75  744.604-51.41L 744.604-51.41Q 745.624-49.67  745.624-47.23L 745.624-47.23Q 746.024-47.94  747.454-49.27Q 748.884-50.59  750.214-51.41L 750.214-51.41Q 753.674-53.75  757.864-53.75Z" style=""></path></svg>