<svg width="35" height="30" viewBox="0 0 35 30" fill="none" xmlns="http://www.w3.org/2000/svg">
<path d="M25.1953 4.03051L24.0171 3.60224C23.4184 3.3861 22.7152 3.61825 22.4587 4.12256L20.7055 7.55269L6.57072 2.42551C6.37117 1.06066 4.98382 0 3.31141 0C1.50121 0 0.0235901 1.24077 0.0235901 2.76572C0.0235901 4.29067 1.49646 5.53544 3.31141 5.53544C3.8958 5.53544 4.44694 5.40736 4.92206 5.17922L20.2399 10.7387L21.5274 11.207C22.0406 11.3951 22.6345 11.247 22.9528 10.8788C23.005 10.8187 23.0478 10.7547 23.0811 10.6866L23.6085 9.658L23.618 9.64199L25.8178 5.33932C26.0743 4.83901 25.794 4.25064 25.1953 4.03051ZM3.31141 4.26665C3.19738 4.26665 3.0881 4.25865 2.97882 4.23863C2.15687 4.10655 1.53447 3.49817 1.53447 2.76572C1.53447 1.94121 2.33266 1.26879 3.31141 1.26879C3.84354 1.26879 4.31866 1.46491 4.64174 1.7771C4.91731 2.04127 5.08835 2.38949 5.08835 2.76972C5.08835 3.59423 4.29015 4.26665 3.31141 4.26665Z" fill="#109E92"/>
<path d="M19.6311 6.18688L12.1527 3.47319C11.8629 3.36912 11.7299 3.08495 11.8534 2.8408L12.8512 0.891585C12.9747 0.647434 13.312 0.535364 13.6019 0.639429L21.0802 3.35311C21.37 3.45718 21.5031 3.74136 21.3795 3.98551L20.3818 5.93472C20.2583 6.17887 19.9209 6.29094 19.6311 6.18688Z" fill="#33364D"/>
<path d="M27.8393 16.969L31.0274 10.6571C31.1509 10.413 31.4883 10.3009 31.7733 10.405L34.0872 11.2335C34.377 11.3375 34.51 11.6217 34.3865 11.8619L31.1984 18.1738C31.0749 18.4179 30.7376 18.53 30.4525 18.4259L28.1387 17.5974C27.8536 17.4934 27.7158 17.2092 27.8393 16.969Z" fill="#109E92"/>
<path d="M15.0459 23.9149L22.5527 26.5726C22.8426 26.6767 22.9803 26.9568 22.8568 27.201L21.8828 29.1542C21.7593 29.3983 21.4267 29.5144 21.1369 29.4104L13.63 26.7527C13.3402 26.6486 13.2024 26.3685 13.3259 26.1243L14.2999 24.1711C14.4187 23.9269 14.756 23.8109 15.0459 23.9149Z" fill="#33364D"/>
<path d="M6.75676 13.2012L3.63524 19.5372C3.51646 19.7813 3.17912 19.8974 2.8893 19.7973L0.565976 18.9848C0.276154 18.8848 0.138369 18.6006 0.257149 18.3564L3.37867 12.0245C3.49745 11.7803 3.83479 11.6643 4.12461 11.7643L6.44794 12.5768C6.74251 12.6769 6.88029 12.9571 6.75676 13.2012Z" fill="#109E92"/>
<path d="M31.698 0.297852C29.8878 0.297852 28.4101 1.53862 28.4101 3.06357C28.4101 3.61992 28.6049 4.13624 28.9423 4.56851L22.4284 17.4685L21.882 18.5532C21.8107 18.6973 21.7775 18.8494 21.787 18.9975C21.787 19.0055 21.787 19.0175 21.7917 19.0255C21.7917 19.0375 21.7917 19.0455 21.7965 19.0575V19.0615C21.8012 19.0775 21.8012 19.0975 21.806 19.1135C21.8107 19.1296 21.8107 19.1456 21.8155 19.1616C21.8155 19.1696 21.8202 19.1776 21.825 19.1856C21.8298 19.2016 21.8345 19.2136 21.8393 19.2256C21.844 19.2416 21.8488 19.2576 21.8583 19.2736C21.8583 19.2817 21.863 19.2857 21.8678 19.2937C21.8725 19.3097 21.882 19.3257 21.8915 19.3377C21.901 19.3537 21.9058 19.3657 21.9153 19.3817C21.92 19.3897 21.9248 19.4017 21.9343 19.4097C21.9343 19.4137 21.939 19.4177 21.939 19.4217C21.9485 19.4337 21.9533 19.4458 21.9628 19.4538C21.9675 19.4658 21.977 19.4738 21.9865 19.4818C21.996 19.4938 22.0055 19.5098 22.0198 19.5218C22.0293 19.5298 22.0341 19.5418 22.0436 19.5498C22.0578 19.5618 22.0673 19.5738 22.0816 19.5898C22.0911 19.5978 22.0958 19.6059 22.1053 19.6139C22.1101 19.6179 22.1101 19.6179 22.1148 19.6219C22.1196 19.6259 22.1196 19.6259 22.1243 19.6299C22.1291 19.6339 22.1291 19.6339 22.1291 19.6339C22.1623 19.6619 22.1956 19.6899 22.2336 19.7139C22.2526 19.7259 22.2716 19.7379 22.2906 19.7499C22.3619 19.794 22.4379 19.83 22.5187 19.858L23.7065 20.2863L23.7635 20.3063L28.8805 22.1394C29.4792 22.3556 30.1823 22.1154 30.4341 21.6111L30.9378 20.6145C31.1943 20.1102 30.9093 19.5218 30.3106 19.3057L26.2293 17.8448L32.3204 5.78526C33.8455 5.54511 35 4.41641 35 3.06357C34.9858 1.53862 33.5129 0.297852 31.698 0.297852ZM32.995 4.08821C32.6719 4.38039 32.2111 4.5605 31.698 4.5605C30.7192 4.5605 29.921 3.88808 29.921 3.06357C29.921 3.03555 29.921 3.00353 29.9258 2.97552C29.978 2.19103 30.7525 1.56664 31.7027 1.56664C32.6814 1.56664 33.4796 2.23906 33.4796 3.06357C33.4796 3.45982 33.2943 3.82004 32.995 4.08821Z" fill="#33364D"/>
<path d="M12.3578 10.4023C12.2675 10.3383 12.1678 10.2862 12.0585 10.2502L10.8232 9.81795L10.8089 9.81395L5.67291 8.02084C5.06951 7.8087 4.37109 8.05286 4.12402 8.56117L3.6299 9.56179C3.37809 10.0701 3.66791 10.6585 4.27131 10.8666L8.36683 12.2995L2.36134 24.4911C0.997748 24.8273 0 25.8919 0 27.1487C0 28.6737 1.47287 29.9184 3.28782 29.9184C5.09802 29.9184 6.57563 28.6777 6.57563 27.1487C6.57563 26.5003 6.30957 25.904 5.86296 25.4317L12.1583 12.6437C12.1773 12.6157 12.1915 12.5877 12.2058 12.5597L12.6999 11.559C12.8995 11.1428 12.7474 10.6745 12.3578 10.4023ZM3.28782 28.6457C2.30907 28.6457 1.51088 27.9732 1.51088 27.1487C1.51088 26.8445 1.62015 26.5644 1.8007 26.3282C2.11903 25.92 2.66541 25.6518 3.28782 25.6518C4.20479 25.6518 4.96023 26.2402 5.05526 26.9926C5.06001 27.0447 5.06476 27.0967 5.06476 27.1487C5.06476 27.9732 4.26656 28.6457 3.28782 28.6457Z" fill="#33364D"/>
<path d="M31.4972 24.4605C30.9033 24.4605 30.3427 24.5966 29.858 24.8288L14.4167 19.3654L13.1291 18.9091C12.6683 18.749 12.1504 18.8491 11.8225 19.1332C11.7228 19.2213 11.6373 19.3214 11.5802 19.4414L11.0671 20.4701L8.90532 24.8088C8.65351 25.3171 8.93858 25.9054 9.53723 26.1176L10.7203 26.5378C11.3237 26.75 12.0221 26.5098 12.2739 26.0055L13.9938 22.5594L28.2426 27.6025C28.4564 28.9553 29.8343 30 31.4972 30C33.3074 30 34.785 28.7592 34.785 27.2303C34.785 25.7053 33.3121 24.4605 31.4972 24.4605ZM31.4972 28.7272C30.9603 28.7272 30.4804 28.5271 30.1574 28.2109C29.8865 27.9467 29.7202 27.6025 29.7202 27.2303C29.7202 26.4058 30.5184 25.7333 31.4972 25.7333C31.5875 25.7333 31.673 25.7373 31.7633 25.7493C32.6185 25.8574 33.2789 26.4818 33.2789 27.2303C33.2789 28.0548 32.4807 28.7272 31.4972 28.7272Z" fill="#109E92"/>
</svg>
